<?xml version="1.0" encoding="UTF-8" standalone="no"?>
<!-- Created builder Inkscape (http://www.inkscape.org/) -->

<svg
   xmlns:dc="http://purl.org/dc/elements/1.1/"
   xmlns:cc="http://creativecommons.org/ns#"
   xmlns:rdf="http://www.w3.org/1999/02/22-rdf-syntax-ns#"
   xmlns:svg="http://www.w3.org/2000/svg"
   xmlns="http://www.w3.org/2000/svg"
   xmlns:xlink="http://www.w3.org/1999/xlink"
   xmlns:sodipodi="http://sodipodi.sourceforge.net/DTD/sodipodi-0.dtd"
   xmlns:inkscape="http://www.inkscape.org/namespaces/inkscape"
   width="48px"
   height="48px"
   id="svg4198"
   sodipodi:version="0.32"
   inkscape:version="0.48.2 r9819"
   sodipodi:docname="format-justify-left.svg"
   inkscape:output_extension="org.inkscape.output.svg.inkscape"
   version="1.1">
  <defs
     id="defs4200">
    <inkscape:perspective
       sodipodi:type="inkscape:persp3d"
       inkscape:vp_x="0 : 24 : 1"
       inkscape:vp_y="0 : 1000 : 0"
       inkscape:vp_z="48 : 24 : 1"
       inkscape:persp3d-origin="24 : 16 : 1"
       id="perspective37" />
    <radialGradient
       inkscape:collect="always"
       xlink:href="#linearGradient5060"
       id="radialGradient5031"
       gradientUnits="userSpaceOnUse"
       gradientTransform="matrix(-2.774389,0,0,1.969706,112.7623,-872.8854)"
       cx="605.71429"
       cy="486.64789"
       fx="605.71429"
       fy="486.64789"
       r="117.14286" />
    <linearGradient
       inkscape:collect="always"
       id="linearGradient5060">
      <stop
         style="stop-color:black;stop-opacity:1;"
         offset="0"
         id="stop5062" />
      <stop
         style="stop-color:black;stop-opacity:0;"
         offset="1"
         id="stop5064" />
    </linearGradient>
    <radialGradient
       inkscape:collect="always"
       xlink:href="#linearGradient5060"
       id="radialGradient5029"
       gradientUnits="userSpaceOnUse"
       gradientTransform="matrix(2.774389,0,0,1.969706,-1891.633,-872.8854)"
       cx="605.71429"
       cy="486.64789"
       fx="605.71429"
       fy="486.64789"
       r="117.14286" />
    <linearGradient
       id="linearGradient5048">
      <stop
         style="stop-color:black;stop-opacity:0;"
         offset="0"
         id="stop5050" />
      <stop
         id="stop5056"
         offset="0.5"
         style="stop-color:black;stop-opacity:1;" />
      <stop
         style="stop-color:black;stop-opacity:0;"
         offset="1"
         id="stop5052" />
    </linearGradient>
    <linearGradient
       inkscape:collect="always"
       xlink:href="#linearGradient5048"
       id="linearGradient5027"
       gradientUnits="userSpaceOnUse"
       gradientTransform="matrix(2.774389,0,0,1.969706,-1892.179,-872.8854)"
       x1="302.85715"
       y1="366.64789"
       x2="302.85715"
       y2="609.50507" />
    <linearGradient
       inkscape:collect="always"
       id="linearGradient3558">
      <stop
         style="stop-color:#000000;stop-opacity:1;"
         offset="0"
         id="stop3560" />
      <stop
         style="stop-color:#000000;stop-opacity:0;"
         offset="1"
         id="stop3562" />
    </linearGradient>
    <radialGradient
       inkscape:collect="always"
       xlink:href="#linearGradient3558"
       id="radialGradient3564"
       cx="22.571428"
       cy="30.857143"
       fx="22.571428"
       fy="30.857143"
       r="15.571428"
       gradientTransform="matrix(1.000000,0.000000,0.000000,0.651376,4.638648e-15,10.75754)"
       gradientUnits="userSpaceOnUse" />
    <linearGradient
       id="linearGradient15218">
      <stop
         style="stop-color:#f8f8f7;stop-opacity:1;"
         offset="0"
         id="stop15220" />
      <stop
         id="stop2269"
         offset="0.59928656"
         style="stop-color:#e8e8e8;stop-opacity:1;" />
      <stop
         style="stop-color:#e2e2de;stop-opacity:1;"
         offset="1"
         id="stop15222" />
    </linearGradient>
    <linearGradient
       inkscape:collect="always"
       xlink:href="#linearGradient15218"
       id="linearGradient2240"
       gradientUnits="userSpaceOnUse"
       gradientTransform="matrix(1.342704,0.000000,0.000000,1.235378,-8.219611,-6.577189)"
       x1="20.794008"
       y1="18.378813"
       x2="35.596001"
       y2="39.60046" />
    <linearGradient
       y2="248.6311"
       x2="153.0005"
       y1="15.4238"
       x1="99.7773"
       gradientTransform="matrix(0.200685,0,0,0.200685,-54.33576,-1.050787)"
       gradientUnits="userSpaceOnUse"
       id="linearGradient3773"
       xlink:href="#aigrd1"
       inkscape:collect="always" />
    <linearGradient
       y2="39.684914"
       x2="34.534348"
       y1="12.284524"
       x1="14.462892"
       gradientTransform="matrix(1.241935,0,0,1.241935,-5.027508,-7.208988)"
       gradientUnits="userSpaceOnUse"
       id="linearGradient3760"
       xlink:href="#linearGradient3264"
       inkscape:collect="always" />
    <radialGradient
       inkscape:collect="always"
       xlink:href="#linearGradient2300"
       id="radialGradient2308"
       gradientTransform="matrix(1.399258,-2.234445e-7,8.196178e-8,0.513264,4.365074,4.839285)"
       cx="14.287618"
       cy="68.872971"
       fx="14.287618"
       fy="72.568001"
       r="11.689870"
       gradientUnits="userSpaceOnUse" />
    <linearGradient
       gradientTransform="matrix(0.200685,0.000000,0.000000,0.200685,-0.585758,-1.050787)"
       y2="248.6311"
       x2="153.0005"
       y1="15.4238"
       x1="99.7773"
       gradientUnits="userSpaceOnUse"
       id="linearGradient53551"
       xlink:href="#aigrd1"
       inkscape:collect="always" />
    <linearGradient
       y2="248.6311"
       x2="153.0005"
       y1="15.4238"
       x1="99.7773"
       gradientUnits="userSpaceOnUse"
       id="aigrd1">
      <stop
         id="stop53300"
         style="stop-color:#184375"
         offset="0" />
      <stop
         id="stop53302"
         style="stop-color:#C8BDDC"
         offset="1" />
    </linearGradient>
    <linearGradient
       id="linearGradient2300">
      <stop
         style="stop-color:#000000;stop-opacity:0.32673267;"
         offset="0.0000000"
         id="stop2302" />
      <stop
         style="stop-color:#000000;stop-opacity:0;"
         offset="1"
         id="stop2304" />
    </linearGradient>
    <linearGradient
       gradientTransform="matrix(1.241935,0,0,1.241935,-5.027508,-7.208988)"
       y2="39.684914"
       x2="34.534348"
       y1="12.284524"
       x1="14.462892"
       gradientUnits="userSpaceOnUse"
       id="linearGradient3281"
       xlink:href="#linearGradient3264"
       inkscape:collect="always" />
    <linearGradient
       id="linearGradient3264">
      <stop
         id="stop3266"
         offset="0"
         style="stop-color:#c9c9c9;stop-opacity:1;" />
      <stop
         style="stop-color:#f8f8f8;stop-opacity:1;"
         offset="0.25"
         id="stop3276" />
      <stop
         style="stop-color:#e2e2e2;stop-opacity:1;"
         offset="0.5"
         id="stop3272" />
      <stop
         id="stop3274"
         offset="0.75"
         style="stop-color:#b0b0b0;stop-opacity:1;" />
      <stop
         id="stop3268"
         offset="1"
         style="stop-color:#c9c9c9;stop-opacity:1;" />
    </linearGradient>
    <inkscape:perspective
       id="perspective31"
       inkscape:persp3d-origin="24 : 16 : 1"
       inkscape:vp_z="48 : 24 : 1"
       inkscape:vp_y="0 : 1000 : 0"
       inkscape:vp_x="0 : 24 : 1"
       sodipodi:type="inkscape:persp3d" />
    <radialGradient
       r="9.5862970"
       fy="9.8105707"
       fx="21.578989"
       cy="9.8105707"
       cx="21.578989"
       gradientTransform="matrix(0.749420,0.000000,0.000000,0.394055,6.226925,10.09253)"
       gradientUnits="userSpaceOnUse"
       id="radialGradient2908"
       xlink:href="#linearGradient2869"
       inkscape:collect="always" />
    <radialGradient
       r="6.4286140"
       fy="20.800287"
       fx="23.943670"
       cy="20.800287"
       cx="23.943670"
       gradientTransform="matrix(1.353283,5.468101e-16,-1.144754e-13,0.635968,-8.458890,3.413470)"
       gradientUnits="userSpaceOnUse"
       id="radialGradient2906"
       xlink:href="#linearGradient2884"
       inkscape:collect="always" />
    <radialGradient
       r="9.5862970"
       fy="9.0255041"
       fx="21.578989"
       cy="9.0255041"
       cx="21.578989"
       gradientTransform="matrix(0.749420,0.000000,0.000000,0.394055,6.226925,10.09253)"
       gradientUnits="userSpaceOnUse"
       id="radialGradient2898"
       xlink:href="#linearGradient2869"
       inkscape:collect="always" />
    <radialGradient
       r="6.4286140"
       fy="20.800287"
       fx="23.943670"
       cy="20.800287"
       cx="23.943670"
       gradientTransform="matrix(1.353283,5.468101e-16,-1.144754e-13,0.635968,-8.458890,3.413470)"
       gradientUnits="userSpaceOnUse"
       id="radialGradient2896"
       xlink:href="#linearGradient2884"
       inkscape:collect="always" />
    <linearGradient
       y2="22.585211"
       x2="24.990499"
       y1="34.004856"
       x1="24.990499"
       gradientUnits="userSpaceOnUse"
       id="linearGradient2288"
       xlink:href="#linearGradient4210"
       inkscape:collect="always" />
    <linearGradient
       y2="47.388485"
       x2="30.014812"
       y1="19.912336"
       x1="18.706615"
       gradientUnits="userSpaceOnUse"
       id="linearGradient2285"
       xlink:href="#linearGradient4222"
       inkscape:collect="always" />
    <linearGradient
       y2="16.020695"
       x2="22.071806"
       y1="9.7577486"
       x1="21.906841"
       gradientUnits="userSpaceOnUse"
       id="linearGradient2282"
       xlink:href="#linearGradient4987"
       inkscape:collect="always" />
    <linearGradient
       y2="12.636667"
       x2="34.193642"
       y1="12.636667"
       x1="16.148972"
       gradientTransform="matrix(1.000000,0.000000,0.000000,1.039184,0.000000,-4.057054e-2)"
       gradientUnits="userSpaceOnUse"
       id="linearGradient2280"
       xlink:href="#linearGradient4182"
       inkscape:collect="always" />
    <linearGradient
       y2="16.170370"
       x2="24.119167"
       y1="24.720648"
       x1="25.381256"
       gradientTransform="matrix(1.000000,0.000000,0.000000,0.986355,0.000000,0.316638)"
       gradientUnits="userSpaceOnUse"
       id="linearGradient2277"
       xlink:href="#linearGradient4192"
       inkscape:collect="always" />
    <linearGradient
       y2="15.267649"
       x2="47.065835"
       y1="14.661557"
       x1="36.288929"
       gradientUnits="userSpaceOnUse"
       id="linearGradient2274"
       xlink:href="#linearGradient4995"
       inkscape:collect="always" />
    <linearGradient
       y2="12.333632"
       x2="17.696169"
       y1="13.444801"
       x1="30.062469"
       gradientUnits="userSpaceOnUse"
       id="linearGradient2269"
       xlink:href="#linearGradient4979"
       inkscape:collect="always" />
    <radialGradient
       r="17.576654"
       fy="35.373093"
       fx="22.930462"
       cy="35.373093"
       cx="22.930462"
       gradientTransform="matrix(1.000000,0.000000,0.000000,0.333333,2.658463e-16,23.58206)"
       gradientUnits="userSpaceOnUse"
       id="radialGradient2252"
       xlink:href="#linearGradient4946"
       inkscape:collect="always" />
    <linearGradient
       id="linearGradient4182">
      <stop
         style="stop-color:#a36d18;stop-opacity:1.0000000;"
         offset="0.0000000"
         id="stop4184" />
      <stop
         style="stop-color:#d79020;stop-opacity:1.0000000;"
         offset="1.0000000"
         id="stop4186" />
    </linearGradient>
    <linearGradient
       id="linearGradient4192">
      <stop
         style="stop-color:#e9b96e;stop-opacity:1;"
         offset="0"
         id="stop4194" />
      <stop
         style="stop-color:#f1d19e;stop-opacity:1.0000000;"
         offset="1.0000000"
         id="stop4196" />
    </linearGradient>
    <linearGradient
       id="linearGradient4210">
      <stop
         style="stop-color:#eaba6f;stop-opacity:1.0000000;"
         offset="0.0000000"
         id="stop4212" />
      <stop
         style="stop-color:#b97a1b;stop-opacity:1.0000000;"
         offset="1.0000000"
         id="stop4214" />
    </linearGradient>
    <linearGradient
       id="linearGradient4222">
      <stop
         style="stop-color:#ffffff;stop-opacity:1;"
         offset="0"
         id="stop4224" />
      <stop
         style="stop-color:#ffffff;stop-opacity:0.68639052;"
         offset="1.0000000"
         id="stop4226" />
    </linearGradient>
    <linearGradient
       inkscape:collect="always"
       id="linearGradient4946">
      <stop
         style="stop-color:#000000;stop-opacity:1;"
         offset="0"
         id="stop4948" />
      <stop
         style="stop-color:#000000;stop-opacity:0;"
         offset="1"
         id="stop4950" />
    </linearGradient>
    <linearGradient
       id="linearGradient4979">
      <stop
         style="stop-color:#fbf0e0;stop-opacity:1.0000000;"
         offset="0.0000000"
         id="stop4981" />
      <stop
         style="stop-color:#f0ce99;stop-opacity:1.0000000;"
         offset="1.0000000"
         id="stop4983" />
    </linearGradient>
    <linearGradient
       inkscape:collect="always"
       id="linearGradient4987">
      <stop
         style="stop-color:#a0670c;stop-opacity:1;"
         offset="0"
         id="stop4989" />
      <stop
         style="stop-color:#a0670c;stop-opacity:0;"
         offset="1"
         id="stop4991" />
    </linearGradient>
    <linearGradient
       id="linearGradient4995">
      <stop
         style="stop-color:#de9523;stop-opacity:1;"
         offset="0"
         id="stop4997" />
      <stop
         style="stop-color:#a36d18;stop-opacity:1.0000000;"
         offset="1.0000000"
         id="stop4999" />
    </linearGradient>
    <linearGradient
       id="linearGradient2869">
      <stop
         id="stop2871"
         offset="0"
         style="stop-color:#ffffff;stop-opacity:1;" />
      <stop
         id="stop2873"
         offset="1.0000000"
         style="stop-color:#cccccc;stop-opacity:1.0000000;" />
    </linearGradient>
    <linearGradient
       id="linearGradient2884"
       inkscape:collect="always">
      <stop
         id="stop2886"
         offset="0"
         style="stop-color:#000000;stop-opacity:1;" />
      <stop
         id="stop2888"
         offset="1"
         style="stop-color:#000000;stop-opacity:0;" />
    </linearGradient>
    <linearGradient
       y2="609.50507"
       x2="302.85715"
       y1="366.64789"
       x1="302.85715"
       gradientTransform="matrix(2.774389,0,0,1.969706,-1892.179,-872.8854)"
       gradientUnits="userSpaceOnUse"
       id="linearGradient6715"
       xlink:href="#linearGradient5048-8"
       inkscape:collect="always" />
    <linearGradient
       id="linearGradient5048-8">
      <stop
         id="stop5050-2"
         offset="0"
         style="stop-color:black;stop-opacity:0;" />
      <stop
         style="stop-color:black;stop-opacity:1;"
         offset="0.5"
         id="stop5056-9" />
      <stop
         id="stop5052-8"
         offset="1"
         style="stop-color:black;stop-opacity:0;" />
    </linearGradient>
    <radialGradient
       r="117.14286"
       fy="486.64789"
       fx="605.71429"
       cy="486.64789"
       cx="605.71429"
       gradientTransform="matrix(2.774389,0,0,1.969706,-1891.633,-872.8854)"
       gradientUnits="userSpaceOnUse"
       id="radialGradient6717"
       xlink:href="#linearGradient5060-5"
       inkscape:collect="always" />
    <linearGradient
       id="linearGradient5060-5"
       inkscape:collect="always">
      <stop
         id="stop5062-5"
         offset="0"
         style="stop-color:black;stop-opacity:1;" />
      <stop
         id="stop5064-5"
         offset="1"
         style="stop-color:black;stop-opacity:0;" />
    </linearGradient>
    <radialGradient
       r="117.14286"
       fy="486.64789"
       fx="605.71429"
       cy="486.64789"
       cx="605.71429"
       gradientTransform="matrix(-2.774389,0,0,1.969706,112.7623,-872.8854)"
       gradientUnits="userSpaceOnUse"
       id="radialGradient6719"
       xlink:href="#linearGradient5060-5"
       inkscape:collect="always" />
    <inkscape:perspective
       id="perspective77"
       inkscape:persp3d-origin="24 : 16 : 1"
       inkscape:vp_z="48 : 24 : 1"
       inkscape:vp_y="0 : 1000 : 0"
       inkscape:vp_x="0 : 24 : 1"
       sodipodi:type="inkscape:persp3d" />
  </defs>
  <sodipodi:namedview
     id="base"
     pagecolor="#ffffff"
     bordercolor="#bebebe"
     borderopacity="1.0000000"
     inkscape:pageopacity="0.0"
     inkscape:pageshadow="2"
     inkscape:zoom="11.313708"
     inkscape:cx="25.107118"
     inkscape:cy="16.185801"
     inkscape:current-layer="layer1"
     showgrid="false"
     inkscape:grid-bbox="true"
     inkscape:document-units="px"
     inkscape:window-width="1280"
     inkscape:window-height="818"
     inkscape:window-x="0"
     inkscape:window-y="30"
     inkscape:showpageshadow="false"
     inkscape:window-maximized="0" />
  <metadata
     id="metadata4203">
    <rdf:RDF>
      <cc:Work
         rdf:about="">
        <dc:format>image/svg+xml</dc:format>
        <dc:type
           rdf:resource="http://purl.org/dc/dcmitype/StillImage" />
        <dc:title></dc:title>
        <dc:date>2005-10-29</dc:date>
        <dc:creator>
          <cc:Agent>
            <dc:title>Andreas Nilsson</dc:title>
          </cc:Agent>
        </dc:creator>
        <dc:subject>
          <rdf:Bag>
            <rdf:li>justify</rdf:li>
            <rdf:li>left</rdf:li>
          </rdf:Bag>
        </dc:subject>
        <cc:license
           rdf:resource="http://creativecommons.org/licenses/publicdomain/" />
      </cc:Work>
      <cc:License
         rdf:about="http://creativecommons.org/licenses/publicdomain/">
        <cc:permits
           rdf:resource="http://creativecommons.org/ns#Reproduction" />
        <cc:permits
           rdf:resource="http://creativecommons.org/ns#Distribution" />
        <cc:permits
           rdf:resource="http://creativecommons.org/ns#DerivativeWorks" />
      </cc:License>
    </rdf:RDF>
  </metadata>
  <g
     id="layer1"
     inkscape:label="Layer 1"
     inkscape:groupmode="layer">
    <g
       style="display:inline"
       id="g5022"
       transform="matrix(2.330573e-2,0,0,1.227058e-2,44.47891,44.41691)">
      <rect
         y="-150.69685"
         x="-1559.2523"
         height="478.35718"
         width="1339.6335"
         id="rect4173"
         style="opacity:0.40206185;color:black;fill:url(#linearGradient5027);fill-opacity:1;fill-rule:nonzero;stroke:none;stroke-width:1;stroke-linecap:round;stroke-linejoin:miter;marker:none;marker-start:none;marker-mid:none;marker-end:none;stroke-miterlimit:4;stroke-dasharray:none;stroke-dashoffset:0;stroke-opacity:1;visibility:visible;display:inline;overflow:visible" />
      <path
         sodipodi:nodetypes="cccc"
         id="path5058"
         d="M -219.61876,-150.68038 C -219.61876,-150.68038 -219.61876,327.65041 -219.61876,327.65041 C -76.744594,328.55086 125.78146,220.48075 125.78138,88.454235 C 125.78138,-43.572302 -33.655436,-150.68036 -219.61876,-150.68038 z "
         style="opacity:0.40206185;color:black;fill:url(#radialGradient5029);fill-opacity:1;fill-rule:nonzero;stroke:none;stroke-width:1;stroke-linecap:round;stroke-linejoin:miter;marker:none;marker-start:none;marker-mid:none;marker-end:none;stroke-miterlimit:4;stroke-dasharray:none;stroke-dashoffset:0;stroke-opacity:1;visibility:visible;display:inline;overflow:visible" />
      <path
         style="opacity:0.40206185;color:black;fill:url(#radialGradient5031);fill-opacity:1;fill-rule:nonzero;stroke:none;stroke-width:1;stroke-linecap:round;stroke-linejoin:miter;marker:none;marker-start:none;marker-mid:none;marker-end:none;stroke-miterlimit:4;stroke-dasharray:none;stroke-dashoffset:0;stroke-opacity:1;visibility:visible;display:inline;overflow:visible"
         d="M -1559.2523,-150.68038 C -1559.2523,-150.68038 -1559.2523,327.65041 -1559.2523,327.65041 C -1702.1265,328.55086 -1904.6525,220.48075 -1904.6525,88.454235 C -1904.6525,-43.572302 -1745.2157,-150.68036 -1559.2523,-150.68038 z "
         id="path5018"
         sodipodi:nodetypes="cccc" />
    </g>
    <rect
       style="opacity:1;fill:url(#linearGradient2240);fill-opacity:1;fill-rule:evenodd;stroke:#888a85;stroke-width:0.99999976;stroke-linecap:butt;stroke-linejoin:miter;stroke-miterlimit:4;stroke-dasharray:none;stroke-dashoffset:0;stroke-opacity:1"
       id="rect4238"
       width="38.996792"
       height="45.003101"
       x="4.5016017"
       y="1.4968988"
       rx="0.56650788"
       ry="0.56650823" />
    <rect
       style="opacity:1;color:#000000;fill:#999999;fill-opacity:1;fill-rule:evenodd;stroke:none;stroke-width:1;stroke-linecap:butt;stroke-linejoin:miter;marker:none;marker-start:none;marker-mid:none;marker-end:none;stroke-miterlimit:4;stroke-dasharray:none;stroke-dashoffset:0;stroke-opacity:1;visibility:visible;display:inline;overflow:visible"
       id="rect4248"
       width="27"
       height="2"
       x="9"
       y="10" />
    <rect
       y="40"
       x="9"
       height="2"
       width="27"
       id="rect4254"
       style="color:#000000;fill:#999999;fill-opacity:1;fill-rule:evenodd;stroke:none;stroke-width:1;marker:none;visibility:visible;display:inline;overflow:visible" />
    <rect
       style="opacity:1;color:#000000;fill:#999999;fill-opacity:1;fill-rule:evenodd;stroke:none;stroke-width:1;stroke-linecap:butt;stroke-linejoin:miter;marker:none;marker-start:none;marker-mid:none;marker-end:none;stroke-miterlimit:4;stroke-dasharray:none;stroke-dashoffset:0;stroke-opacity:1;visibility:visible;display:inline;overflow:visible"
       id="rect4256"
       width="17"
       height="2"
       x="9"
       y="34" />
    <rect
       style="opacity:1;fill:none;fill-opacity:1;fill-rule:evenodd;stroke:#ffffff;stroke-width:0.99999982;stroke-linecap:butt;stroke-linejoin:miter;stroke-miterlimit:4;stroke-dasharray:none;stroke-dashoffset:0;stroke-opacity:1"
       id="rect2245"
       width="37.025566"
       height="43.022316"
       x="5.4997125"
       y="2.4997177"
       rx="0"
       ry="0" />
    <g
       id="g27355"
       transform="matrix(0.40555334,0,0,0.40555334,8.6519421,13.250325)">
      <g
         id="layer2"
         inkscape:label="shadow" />
      <g
         inkscape:label="Layer 1"
         id="layer1-5">
        <path
           id="path3243"
           d="M 22.699525,0.94746963 C 22.22635,0.97984519 21.766437,1.0531317 21.301673,1.1063165 l -0.03177,0 -1.111928,6.0679506 C 18.345621,7.5870046 16.640562,8.2874574 15.106644,9.2392765 L 10.118853,5.6493371 C 8.770521,6.6961412 7.543552,7.9170049 6.465374,9.2392765 l 3.462862,5.0513305 c -1.051422,1.606783 -1.842083,3.441487 -2.287395,5.369025 -7.6e-5,0.0091 -6.2e-5,0.03018 0,0.03177 l -6.036181,0.95308 c -0.110357,0.901369 -0.158847,1.832904 -0.158847,2.763936 0,0.761753 0.021033,1.513329 0.095308,2.255625 l 6.036182,1.080159 c 0.429297,2.096161 1.244809,4.053785 2.382703,5.782026 l -3.58994,4.924254 c 1.028135,1.276384 2.215105,2.43848 3.494632,3.462861 l 5.0831,-3.494631 c 1.776475,1.133244 3.759545,1.927892 5.909103,2.319165 l 0.953082,6.004411 c 0.677254,0.06165 1.371775,0.06354 2.065009,0.06354 0.978685,-10e-7 1.91352,-0.03709 2.859244,-0.158847 l 1.143697,-6.131489 c 2.040927,-0.507904 3.958179,-1.388998 5.62318,-2.573319 l 4.892483,3.55817 c 1.26877,-1.079445 2.428987,-2.320188 3.431093,-3.653479 l -3.55817,-5.146638 c 0.963606,-1.664197 1.631298,-3.500366 1.969701,-5.464333 l 6.004412,-0.953081 c 0.05266,-0.62659 0.06354,-1.234265 0.06354,-1.874393 0,-1.1124 -0.129295,-2.203101 -0.285924,-3.272246 l -6.09972,-1.111928 c -0.478008,-1.76508 -1.262312,-3.41188 -2.255625,-4.892484 L 41.25284,9.2075071 C 40.140075,7.8466524 38.870718,6.5895264 37.472284,5.5222596 l -5.178408,3.55817 C 30.805549,8.200202 29.203897,7.5248159 27.464931,7.1424978 L 26.51185,1.1063165 C 25.644369,1.0042729 24.769749,0.94746963 23.874992,0.94746963 c -0.241826,1e-8 -0.490706,-0.007609 -0.730696,0 -0.116995,0.003709 -0.232771,-0.006806 -0.349463,0 -0.0316,0.001843 -0.06376,-0.002158 -0.09531,0 z M 23.525529,16.387386 c 0.116063,-0.0059 0.231944,0 0.349463,0 3.760606,0 6.830416,3.06981 6.830416,6.830416 1e-6,3.760605 -3.069811,6.798646 -6.830416,6.798646 -3.760605,1e-6 -6.798646,-3.038041 -6.798646,-6.798646 10e-7,-3.643086 2.851212,-6.647839 6.449183,-6.830416 z"
           style="color:#000000;fill:url(#linearGradient3773);fill-opacity:1;fill-rule:nonzero;stroke:#3f4561;stroke-width:1;stroke-linecap:round;stroke-linejoin:round;stroke-miterlimit:4;stroke-opacity:1;stroke-dasharray:none;stroke-dashoffset:0;marker:none;visibility:visible;display:inline;overflow:visible"
           inkscape:r_cx="true"
           inkscape:r_cy="true"
           inkscape:connector-curvature="0" />
        <path
           transform="matrix(0.616598,0,0,0.616598,9.38202,8.539674)"
           d="m 36.239223,23.781593 c 0,7.029438 -5.698484,12.727923 -12.727922,12.727923 -7.029437,0 -12.727922,-5.698485 -12.727922,-12.727923 0,-7.029437 5.698485,-12.727922 12.727922,-12.727922 7.029438,0 12.727922,5.698485 12.727922,12.727922 z"
           sodipodi:ry="12.727922"
           sodipodi:rx="12.727922"
           sodipodi:cy="23.781593"
           sodipodi:cx="23.511301"
           id="path3283"
           style="opacity:0.64772728;color:#000000;fill:none;stroke:#ffffff;stroke-width:1.62180054;stroke-linecap:butt;stroke-linejoin:miter;stroke-miterlimit:4;stroke-opacity:1;stroke-dasharray:none;stroke-dashoffset:0;marker:none;visibility:visible;display:inline;overflow:visible"
           sodipodi:type="arc"
           inkscape:r_cx="true"
           inkscape:r_cy="true" />
        <path
           sodipodi:nodetypes="ccccccccccccccccccccccccccccccccc"
           style="opacity:0.34659089;color:#000000;fill:none;stroke:#ffffff;stroke-width:0.99999923;stroke-linecap:butt;stroke-linejoin:miter;stroke-miterlimit:4;stroke-opacity:1;stroke-dasharray:none;stroke-dashoffset:0;marker:none;visibility:visible;display:inline;overflow:visible"
           d="m 21.995808,2.1484671 -0.892784,5.8750572 c -1.69877,0.3868703 -4.823582,1.5700792 -6.261367,2.4622467 L 10.091975,6.9406268 C 8.828145,7.9218257 8.741474,7.9883656 7.730867,9.2277688 l 3.434196,5.0932192 c -0.985526,1.506083 -2.169267,4.189994 -2.594285,6.107942 0,0 -6.01779,1.014425 -6.01779,1.014425 -0.103441,0.844879 -0.053728,2.653173 0.015892,3.348948 l 5.748217,1.035517 c 0.402393,1.96479 1.908227,5.127412 2.974807,6.747341 l -3.635002,4.802558 c 0.963699,1.196391 1.156572,1.30587 2.355908,2.266051 l 4.860631,-3.561037 c 1.66514,1.062221 4.970289,2.354376 6.98513,2.721127 l 0.797728,5.801092 c 0.63481,0.05778 2.38853,0.219875 3.274984,0.105749 l 0.892783,-6.03888 c 1.913018,-0.476072 5.218473,-1.832925 6.779125,-2.943023 l 4.855433,3.50816 c 1.189254,-1.011792 1.199909,-1.164249 2.139211,-2.41398 l -3.59802,-5.114311 c 0.903215,-1.5599 2.071087,-4.610599 2.388282,-6.45148 l 5.890949,-0.977443 c 0.04935,-0.58732 0.05176,-2.225166 -0.09506,-3.227305 L 39.182092,20.016922 C 38.73404,18.362463 37.196418,15.381153 36.265359,13.993342 L 40.080075,9.1907857 C 39.037052,7.915218 38.64924,7.7402002 37.338448,6.7398212 L 32.313994,10.337839 C 30.918941,9.5127782 28.137095,8.2550417 26.507114,7.8966842 L 25.619528,2.1484671 c -0.813114,-0.095648 -3.15904,-0.053175 -3.62372,0 z"
           id="path3285"
           inkscape:r_cx="true"
           inkscape:r_cy="true"
           inkscape:connector-curvature="0" />
        <path
           sodipodi:nodetypes="cccccccccsccccccccccccccccccccsccccc"
           inkscape:r_cy="true"
           inkscape:r_cx="true"
           id="path3767"
           d="M 10.102903,6.2970655 C 8.7545689,7.3438694 8.1656464,7.9719226 7.0874684,9.2941942 l 3.4024586,4.9649588 c -1.0514198,1.598602 -2.1582995,4.166961 -2.3475411,5.728553 0,0 -6.0625,1.044194 -6.0625,1.044194 C 2.0109129,21.595256 1.90625,22.884803 1.90625,22.884803 l 0.1767767,1.5625 c 0.42773,0.08833 0.840155,0.170515 1.28125,0.21875 l 0.5,-1.53125 c 0.344041,0.02848 0.679653,0.0625 1.03125,0.0625 0.351208,0 0.718458,-0.03383 1.0625,-0.0625 l 0.46875,1.53125 c 0.441288,-0.04824 0.884772,-0.130415 1.3125,-0.21875 l 0,-1.5625 c 0.685757,-0.159623 1.332001,-0.387758 1.96875,-0.65625 l 0.9375003,1.28125 c 0.402351,-0.182094 0.775596,-0.375819 1.15625,-0.59375 l -0.5,-1.5 c 0.597233,-0.36225 1.161752,-0.795347 1.6875,-1.25 l 1.28125,0.9375 c 0.325635,-0.29658 0.641113,-0.611862 0.9375,-0.9375 l -0.9375,-1.25 c 0.454846,-0.525748 0.8565,-1.089882 1.21875,-1.6875 l 1.5,0.46875 c 0.217931,-0.380847 0.443294,-0.754094 0.625,-1.15625 l -1.28125,-0.9375 c 0.26849,-0.636749 0.464989,-1.282992 0.625,-1.96875 l 1.59375,0 c 0.08833,-0.427727 0.139459,-0.871212 0.1875,-1.3125 l -1.5,-0.46875 c 0.02886,-0.343848 0.0625,-0.711097 0.0625,-1.0625 -1e-6,-0.351403 -0.03402,-0.687014 -0.0625,-1.0312496 l 1.5,-0.46875 c -0.04555,-0.4198872 -0.105591,-0.8419986 -0.1875,-1.25 -1.147428,0.399301 -2.55266,1.1531195 -3.568512,1.7834709 L 10.102903,6.2970655 z"
           style="opacity:0.5;color:#000000;fill:#ffffff;fill-opacity:1;fill-rule:nonzero;stroke:none;stroke-width:1;marker:none;visibility:visible;display:inline;overflow:visible"
           inkscape:connector-curvature="0" />
        <path
           inkscape:r_cy="true"
           inkscape:r_cx="true"
           id="path3770"
           d="m 37.236641,17.217754 c -0.383781,0.181376 -0.746638,0.385755 -1.113405,0.595541 l 0.56965,1.734841 c -0.697094,0.4223 -1.35473,0.919689 -1.967878,1.450015 l -1.475909,-1.087512 c -0.380086,0.345899 -0.741772,0.707584 -1.087511,1.087512 l 1.087511,1.475908 c -0.530326,0.613312 -1.027552,1.270943 -1.450015,1.967878 l -0.543756,-0.181252 c -0.04768,0.700283 -0.236379,1.361485 -0.517862,1.967878 l 0.103572,0.07768 c -0.313157,0.74268 -0.564548,1.530398 -0.750901,2.330382 l -1.475908,0 c -0.136283,0.08545 -0.270553,0.18506 -0.414291,0.258931 -0.07837,0.415267 -0.134912,0.817326 -0.181251,1.242871 l 1.760733,0.569648 c -0.03339,0.401276 -0.05179,0.807195 -0.05179,1.216978 -2e-6,0.409941 0.0184,0.815701 0.05179,1.216977 l -1.760733,0.569648 c 0.05602,0.514755 0.129991,1.02867 0.233038,1.527695 l 1.838412,-0.02589 c 0.128118,0.549987 0.303065,1.107439 0.49197,1.631267 0.744916,-0.28728 1.473833,-0.630185 2.149129,-1.035725 -0.411587,-1.216041 -0.647328,-2.529108 -0.647328,-3.883969 10e-7,-5.197933 3.292381,-9.636655 7.897405,-11.341191 l -1.087511,-0.181253 c -0.222788,-0.822662 -0.511324,-1.628591 -0.880367,-2.382167 -0.01085,-0.02216 -0.01492,-0.05558 -0.02589,-0.07768 l -0.05179,-0.05179 -0.699115,-0.673221 z"
           style="opacity:0.5;color:#000000;fill:#ffffff;fill-opacity:1;fill-rule:nonzero;stroke:none;stroke-width:1;marker:none;visibility:visible;display:inline;overflow:visible"
           inkscape:connector-curvature="0" />
      </g>
    </g>
  </g>
</svg>
